<?xml version="1.0" encoding="UTF-8"?>
<!-- Generator: Adobe Illustrator 16.0.0, SVG Export Plug-In . SVG Version: 6.00 Build 0)  -->
<!DOCTYPE svg PUBLIC "-//W3C//DTD SVG 1.1//EN" "http://www.w3.org/Graphics/SVG/1.1/DTD/svg11.dtd">
<svg version="1.1" id="Layer_1" xmlns="http://www.w3.org/2000/svg" xmlns:xlink="http://www.w3.org/1999/xlink" x="0px" y="0px" width="1000px" height="330.695px" viewBox="-434.5 -143.348 1000 330.695" enable-background="new -434.5 -143.348 1000 330.695" xml:space="preserve">
<title>Page 1</title>
<desc>Created with Sketch.</desc>
<g id="Page-1">
	<g>
		<path id="Fill-1" d="M564.584-58.246h-25.789l-5.945,13.454l-10.043,22.749h-12.107l-3.594,7.721h12.412l-14.957,33.248    C493.879,42.306,476.93,65.35,467.254,65.35c-2.051,0-3.334-0.955-3.334-3.089c0-2.007,0.559-4.178,3.072-10.011    c3.074-7.162,8.006-17.322,11.691-24.842c5.334-10.85,13.941-27.877,13.941-36.359c0-8.523-5.4-15.013-15.949-15.013    c-11.914,0-22.604,7.199-32.473,17.467l6.408-15.546h-24.393l-19.844,44.957c-7.879,15.975-24.133,42.397-34.182,42.397    c-2.088,0-2.969-1.275-2.969-3.35c0-1.118,0.559-3.453,1.447-5.49c0.895-2.044,12.756-29.511,12.756-29.511l21.477-49.131h-26.131    L357.9,25.618c-6.551,14.8-22.871,39.806-33.33,39.806c-2.135,0-3.521-1.074-3.521-3.715c0-2.627,1.939-7.311,3.445-10.816    l10.938-23.939l0.037,0.008l22.596-49.131h-26.125l-5.102,11.07l-0.016-0.003c-3.752,7.441-10.377,16.311-20.588,16.311    c-4.969,0-7.223-1.958-8.445-3.878c-1.521-16.55-11.951-25.379-27.543-25.379c-21.559,0-36.926,12.764-47.012,28.12    c-6.727,10.269-11.309,21.414-15.375,34.245c-9.242,15.144-19.014,26.997-26.586,26.997c-1.939,0-3.141-1.155-3.141-3.699    c0-2.843,2.506-8.423,3.484-10.512l16.912-36.008c4.713-11.149,7.996-18.511,7.996-25.729c0-7.776-5.432-13.327-14.264-13.327    c-12.248,0-25.633,6.99-36.137,18.706c0.352-1.637,0.523-3.532,0.523-5.654c0-8.531-4.199-13.051-13.248-13.051    c-11.221,0-22.738,6.606-33.287,18.758l6.998-16.837H93.27L73.293,22.914c-9.539,21.175-24.75,42.397-33.424,42.397    c-2.026,0-3.182-1.036-3.182-3.617c0-4.155,4.457-14.106,6.247-18.203l26.435-59.976c1.969-4.477-10.736-7.251-26.882-7.251    c-16.583,0-33.518,8.25-46.064,18.579C-12.332,2.064-18.826,5.734-22.175,5.734c-1.627,0-2.357-0.888-2.357-1.928    c0-3.701,8.807-14.006,8.807-21.824c0-3.555-1.933-5.949-6.838-5.949c-9.5,0-20.629,9.104-28.914,18.5l6.99-16.583h-23.129    l-19.933,44.964c-9.542,21.175-25.177,43.315-33.846,43.315c-2.021,0-3.186-1.044-3.186-3.625c0-3.999,4.274-13.891,6.691-19.113    l26.431-59.976c1.966-4.477-10.727-7.251-26.87-7.251c-23.827,0-47.054,16.061-59.515,32.502    c-13.584,17.897-22.787,36.815-22.995,52.242c-0.176,12.368,6.255,20.179,19.212,20.179c14.425,0,25.949-11.451,32.832-20    c-0.16,0.896-0.811,4.044-0.811,5.125c0,8.624,3.447,14.859,13.91,14.859c9.25,0,21.614-7.735,31.555-20.059l-8.035,18.262h25.238    l24.721-55.994C-54.148,5.156-44.779-4.296-42.261-4.296c0.811,0,1.168,0.358,1.168,1.059c0,1.94-3.785,7.05-3.785,11.839    c0,4.901,2.67,8.251,9.432,8.251c5.404,0,11.478-2.633,16.822-5.938C-31.321,28.177-39.83,46.207-40.027,61.008    c-0.164,12.368,6.277,20.179,19.231,20.179c13.675,0,26.214-12.809,33.104-21.357c-0.247,1.343-0.5,4.26-0.5,5.924    c0,8.406,4.756,15.418,14.472,15.418c10.661,0,19.464-6.69,30.18-19.76l-7.916,17.963h25.845l23.58-53.518    c10.316-23.293,24.305-35.568,31.213-35.568c2.045,0,3.416,1.096,3.416,3.487c0,1.437-0.619,4.077-2.119,7.583L95.895,79.374    l26.469-0.066l24.154-54.45c10.385-23.32,21.873-34.853,30.406-34.853c2.582,0,3.686,1.328,3.686,4.147    c0,1.563-0.492,4.17-2.49,8.542l-23.143,49.332c-1.924,4.216-3.805,10.28-3.805,14.965c0,7.475,4.148,14.181,15.682,14.181    c15.01,0,26.543-11.316,39.418-28.392l0.059,3.655c0.957,13.555,8.609,25.267,28.572,25.267c23.656,0,42.813-16.39,54.449-42.282    c5.223-11.623,7.744-21.533,8.438-29.042c2.207,1.104,4.969,1.794,8.445,1.794c3.268,0,7.131-0.649,11.137-2.708l-4.109,8.922    c-4.738,9.896-10.014,20.899-13.928,30.067c-2.889,6.772-4.619,13.114-4.619,17.352c0,9.271,5.066,15.807,15.605,15.807    c10.564,0,25.066-9.906,35.271-23.797h0.32c-0.59,2.768-1.164,6.692-1.164,8.773c0,7.639,2.336,14.964,13.121,14.964    c12.496,0,22.127-9.041,31.615-20.32l-8.004,18.143h26.133l20.828-47.176c11.793-26.621,23.691-42.629,34.709-42.629    c2.352,0,3.566,1.563,3.566,3.894c0,4.431-6.348,16.658-12.346,29.038c-5.416,11.16-9.443,19.693-12.264,26.408    c-2.492,5.945-4.535,13.121-4.535,17.799c0,8.198,4.564,14.464,14.605,14.464c15.031,0,30.436-14.486,38.494-25.661    c-1.852,5.169-3.014,11.421-3.014,16.359c0,15.023,9.145,22.574,21.768,22.574c8.906,0,16.619-3.096,23.424-7.818    c9.875-6.849,17.828-17.15,24.572-26.707l-4.447-4.281c-6.236,8.803-13.084,17.239-20.125,22.438    c-4.41,3.269-8.893,5.267-13.332,5.267c-5.363,0-8.809-2.76-8.809-9.771c0-6.9,3.178-16.188,8.123-28.526    c0.262-0.598,7.281-16.353,14.018-31.533c5.707-12.85,11.211-25.3,12.271-27.833h16.947l3.432-7.721h-16.867L564.584-58.246z     M-169.507,65.417c-3.734,0-6.232-1.246-6.326-6.088c0.184-12.764,10.694-35.226,23.965-53.2    c9.191-12.455,21.298-21.652,34.193-21.652l-16.42,36.535C-146.27,48.624-159.667,65.417-169.507,65.417L-169.507,65.417z     M-8.677,65.417c-3.733,0-6.251-1.246-6.332-6.088c0.182-12.764,10.689-35.226,23.957-53.2    c9.189-12.455,21.298-21.652,34.191-21.652L26.716,21.012h0.038C14.393,49.026,1.606,65.417-8.677,65.417L-8.677,65.417z     M250.002,62.246c-5.826,8.176-10.818,10.533-15.145,10.533c-5.945,0-7.713-4.968-6.982-12.234    c1.299-12.756,11.779-42.211,26.482-62.599c6.691-9.284,11.309-13.145,16.307-13.145c4.924,0,6.67,4.238,6.492,9.549    C276.693,8.181,264.398,42.022,250.002,62.246L250.002,62.246z"/>
		<g id="Group-5" transform="translate(0.000000, 0.666256)">
			<g id="Clip-4">
			</g>
			<defs>
				<filter id="Adobe_OpacityMaskFilter" filterUnits="userSpaceOnUse" x="-434.5" y="-144.014" width="300.106" height="269.644">
					<feColorMatrix type="matrix" values="1 0 0 0 0  0 1 0 0 0  0 0 1 0 0  0 0 0 1 0"/>
				</filter>
			</defs>
			<mask maskUnits="userSpaceOnUse" x="-434.5" y="-144.014" width="300.106" height="269.644" id="mask-2">
				<g filter="url(#Adobe_OpacityMaskFilter)">
					<polygon id="path-1" fill="#FFFFFF" points="-434.5,-144.014 -134.394,-144.014 -134.394,125.63 -434.5,125.63      "/>
				</g>
			</mask>
			<path id="Fill-3" mask="url(#mask-2)" d="M-235.527,3.102c8.825-1.033,23.252-3.917,28.746-5.908     c33.943-9.459,72.387-32.167,72.387-72.491c0-46.445-49.227-68.716-107.891-68.716c-62.607,0-120.029,27.744-141.331,70.622     c-5.632,11.347-8.773,23.734-8.773,36.968c0,11.955,2.914,22.704,8.773,31.38c9.034,13.372,25.136,21.779,48.926,21.779     c28.993,0,52.104-15.916,52.104-43.603c0,0,0.429-7.781-8.605-7.781c-7.412,0-9.318,5.091-9.142,7.781     c1.055,21.757-11.779,39.033-34.827,39.033c-25.736,0-36.55-21.872-36.55-45.333c0-47.94,36.173-79.705,73.812-93.311     c19.294-7.039,34.819-9.575,55.057-9.575c42.574,0,77.393,16.37,77.393,60.044c0,36.594-30.709,67.72-67.639,70.32l1.458-5.036     c7.571-26.807,16.699-56.125,31.765-77.94c0.887-1.369,2.458-3.406,4.178-5.591l-2.063-2.567c-2.687,1.548-7.49,5.058-9.411,6.55     c-70.66,55.02-72.793,209.443-166.874,209.443c-3.413,0-6.594-0.269-9.582-0.746c-19.634-3.162-29.903-16.337-29.839-34.658     c0.015-3.604,1.246-8.564,1.246-11.384c0-4.752-3.227-9.683-10.284-9.683c-8.396,0-11.842,6.534-11.999,16.157     c-0.448,27.521,19.761,43.432,50.876,46.296c3.398,0.321,6.927,0.478,10.582,0.478C-299.644,125.63-254.531,70.308-235.527,3.102     "/>
		</g>
		<polygon id="Fill-6" points="-218.205,166.967 -240.996,134.935 -250.07,134.935 -250.07,186.595 -239.332,186.595     -239.332,154.613 -216.609,186.595 -207.538,186.595 -207.538,134.935 -218.205,134.935   "/>
		<polygon id="Fill-8" points="-133.427,164.699 -113.898,164.699 -113.898,155.517 -133.427,155.517 -133.427,144.319     -110.917,144.319 -110.917,134.935 -144.166,134.935 -144.166,186.587 -110.847,186.587 -110.847,177.127 -133.427,177.127   "/>
		<polygon id="Fill-10" points="-25.17,144.319 -7.852,144.319 -7.852,134.935 -53.219,134.935 -53.219,144.319 -35.827,144.319     -35.827,186.587 -25.17,186.587   "/>
		<polygon id="Fill-12" points="123.541,134.935 111.904,134.935 100.893,168.504 89.809,134.935 81.012,134.935 70.01,168.504     58.917,134.935 47.28,134.935 65.359,186.595 74.441,186.595 85.451,153.853 96.455,186.595 105.459,186.595   "/>
		<path id="Fill-14" d="M225.504,141.492c-5.059-4.901-11.504-7.318-19.33-7.318c-7.898,0-14.344,2.417-19.402,7.318    c-5.051,4.841-7.541,11.256-7.541,19.269c0,8.012,2.49,14.442,7.541,19.336c5.059,4.834,11.504,7.251,19.402,7.251    c7.826,0,14.271-2.417,19.33-7.251c5.049-4.894,7.549-11.324,7.549-19.336C233.053,152.748,230.553,146.333,225.504,141.492     M217.67,173.264c-2.908,3.103-6.729,4.625-11.496,4.625c-4.781,0-8.652-1.522-11.645-4.625    c-2.969-3.104-4.424-7.251-4.424-12.503c0-5.319,1.455-9.459,4.424-12.502c2.992-3.111,6.863-4.626,11.645-4.626    c4.768,0,8.588,1.515,11.496,4.626c2.977,3.043,4.432,7.183,4.432,12.502C222.102,166.013,220.646,170.16,217.67,173.264"/>
		<path id="Fill-16" d="M333.484,151.511c0-5.178-1.521-9.25-4.566-12.152c-3.051-2.977-7.078-4.424-12.129-4.424h-22.164v51.66    h10.742v-18.583h8.654l10.115,18.583h12.049l-11.012-20.314C330.439,163.73,333.484,158.62,333.484,151.511 M315.469,158.553    h-10.176v-14.227h10.176c4.236,0,7.146,2.552,7.146,7.185C322.615,155.927,319.705,158.553,315.469,158.553"/>
		<polygon id="Fill-18" points="424.904,134.935 407.314,156.271 407.314,134.935 396.588,134.935 396.588,186.595 407.314,186.595     407.314,172.293 413.686,164.625 428.098,186.595 440.705,186.595 420.824,156.061 438.623,134.935   "/>
	</g>
</g>
</svg>