<?xml version="1.0" encoding="UTF-8"?><svg id="Layer_2" xmlns="http://www.w3.org/2000/svg" viewBox="0 0 354.84 353.07"><defs><style>.cls-1{fill:#fff;}</style></defs><g id="Layer_1-2"><path class="cls-1" d="M354.84,177.42c0,87.82-63.87,160.57-148.15,175.65l-.8-.62c.53-.09,1.15-.18,1.69-.27v-125.08h39.03l7.98-49.68h-47.02v-34.6c0-14.19,5.32-24.84,26.61-24.84h23.06v-45.24c-12.42-1.77-26.61-3.55-39.03-3.55-40.81,0-69.19,24.84-69.19,69.19v39.03h-44.36v49.68h44.36v125.08h.18l-1.06,.89C63.87,337.99,0,265.25,0,177.42,0,79.84,79.84,0,177.42,0s177.42,79.84,177.42,177.42Z"/></g></svg>