<?xml version="1.0" encoding="UTF-8"?><svg id="Layer_2" xmlns="http://www.w3.org/2000/svg" viewBox="0 0 353.06 353.06"><defs><style>.cls-1{fill:#fff;}</style></defs><g id="Layer_1-2"><g><path class="cls-1" d="M265.42,154.45c-.09-10.5-.42-21.05-1.65-31.46-2.06-17.49-13.02-29.28-30.34-32.74-7.41-1.49-15.11-1.92-22.7-2.03-20.17-.3-40.36-.35-60.53-.11-9.57,.11-19.23,.45-28.68,1.82-16.56,2.4-27.83,13.16-31.16,29.46-1.44,7.06-1.94,14.4-2.1,21.63-.37,17.49-.5,35-.31,52.49,.13,12.12,.44,24.28,1.62,36.33,1.21,12.41,7.11,22.51,18.22,28.93,6.79,3.93,14.33,5.57,22.07,5.85,15.58,.55,31.17,.82,46.76,1.2v-.33c5.72,0,11.44,.17,17.15-.04,12.33-.44,24.75-.29,36.95-1.83,16.67-2.1,27.94-11.73,32.01-28.32,1.64-6.71,2.18-13.8,2.32-20.74,.39-20.03,.52-40.08,.37-60.11Zm-88.67,77.85c-30.67,.11-55.7-24.84-55.81-55.63-.11-30.66,24.94-55.72,55.69-55.73,30.71,0,55.46,24.67,55.68,55.5,.21,30.64-24.77,55.75-55.56,55.86Zm57.98-100.6c-7.23,.08-13.15-5.7-13.18-12.89-.04-7.17,5.63-12.95,12.78-13.04,7.31-.1,13.1,5.58,13.15,12.86,.05,7.18-5.63,13-12.75,13.07Zm-58.13,8.83c-19.97,.01-36.03,16.07-36.04,36.06-.02,19.97,16.03,36.06,36.01,36.09,20,.04,36.08-15.96,36.15-35.95,.07-20.07-16.04-36.22-36.12-36.2Z"/><path class="cls-1" d="M176.53,0C79.03,0,0,79.03,0,176.53s79.03,176.53,176.53,176.53,176.53-79.03,176.53-176.53S274.03,0,176.53,0Zm108.01,212.94c-.09,7.86-.63,15.85-2.14,23.54-4.05,20.76-15.91,35.44-35.82,43.19-9.6,3.74-19.72,4.74-29.91,4.84-22.86,.23-45.72,.44-68.58,.32-11.26-.06-22.59-.11-33.66-2.79-17.95-4.36-31.27-14.53-39.2-31.33-4.87-10.34-6.37-21.46-6.48-32.74-.25-23.43-.51-46.85-.33-70.27,.08-9.85,.68-19.78,2.12-29.51,2.24-15.16,9.54-27.75,21.95-37.06,10.63-7.98,22.94-11.15,35.96-12.07,5.2-.37,10.41-.58,15.61-.87h64.78c1.26,.12,2.51,.24,3.77,.35,8.13,.74,16.41,.75,24.38,2.35,21.08,4.24,35.76,16.48,43.17,36.92,3.59,9.89,4.42,20.22,4.45,30.62,.07,24.84,.19,49.68-.07,74.51Z"/></g></g></svg>