<?xml version="1.0" encoding="UTF-8"?><svg id="Layer_2" xmlns="http://www.w3.org/2000/svg" viewBox="0 0 353.06 353.06"><defs><style>.cls-1{fill:#fff;}</style></defs><g id="Layer_1-2"><path class="cls-1" d="M176.53,0C79.03,0,0,79.03,0,176.53s79.03,176.53,176.53,176.53,176.53-79.03,176.53-176.53S274.03,0,176.53,0Zm99.62,137c-1.58,1.19-2.08,2.36-2.03,4.37,.55,21.33-4.09,41.57-13.3,60.75-11.01,22.94-27.04,41.51-48.75,54.97-15.41,9.54-32.19,15.22-50.14,17.62-12.65,1.7-25.3,1.73-37.9-.08-18.28-2.63-35.29-8.83-50.91-18.73-.11-.07-.17-.2-.45-.52,24.86,2.28,47.18-3.82,67.59-19.13-3.49-.28-6.38-.48-9.19-1.18-15.81-3.99-26.77-13.58-33.02-28.6-.95-2.29-.78-2.41,1.74-2.06,5.5,.78,10.96,.44,16.38-.71,.33-.07,.64-.27,1.08-.46-26.4-6.55-37.08-30.13-35.92-45.6,6.25,3.13,12.72,5.24,20.33,5.4-10.06-7.33-16.49-16.54-19.09-28.23-2.59-11.63-.73-22.61,4.98-33,.87,.19,1.16,.84,1.57,1.33,19.31,22.68,43.51,37.29,72.55,43.84,6.43,1.45,12.99,2.17,19.56,2.73,1.63,.13,1.53-.45,1.34-1.73-2.62-17.18,2.03-31.99,15.19-43.57,10.66-9.37,23.3-12.86,37.37-10.72,9.78,1.49,18.19,5.81,25.22,12.78,.86,.86,1.61,1.11,2.88,.83,8.92-2,17.39-5.12,25.38-9.56,.56-.31,1.15-.58,2.17-1.08-3.54,10.74-10.02,18.63-19.56,25.01,3.42-.11,6.11-.73,8.78-1.39,2.7-.65,5.39-1.36,8.04-2.2,2.72-.86,5.38-1.89,8.06-2.85,.09,.12,.19,.23,.3,.33-5.43,8.39-12.3,15.44-20.25,21.44Z"/></g></svg>