<?xml version="1.0" encoding="UTF-8"?><svg id="Layer_2" xmlns="http://www.w3.org/2000/svg" viewBox="0 0 353.06 353.06"><defs><style>.cls-1{fill:#fff;}</style></defs><g id="Layer_1-2"><g><polygon class="cls-1" points="155.18 144.42 210.93 176.53 155.18 208.63 155.18 144.42"/><path class="cls-1" d="M176.53,0C79.03,0,0,79.03,0,176.53s79.03,176.53,176.53,176.53,176.53-79.03,176.53-176.53S274.03,0,176.53,0Zm107.08,176.7s0,34.76-4.41,51.52c-2.47,9.17-9.71,16.4-18.87,18.87-16.77,4.41-83.8,4.41-83.8,4.41,0,0-66.86,0-83.8-4.58-9.17-2.47-16.4-9.71-18.87-18.88-4.41-16.58-4.41-51.51-4.41-51.51,0,0,0-34.75,4.41-51.51,2.47-9.17,9.88-16.58,18.87-19.05,16.77-4.41,83.8-4.41,83.8-4.41,0,0,67.03,0,83.8,4.58,9.16,2.47,16.4,9.71,18.87,18.88,4.59,16.76,4.41,51.68,4.41,51.68Z"/></g></g></svg>