<?xml version="1.0" encoding="utf-8"?>
<!-- Generator: Adobe Illustrator 26.5.0, SVG Export Plug-In . SVG Version: 6.00 Build 0)  -->
<svg version="1.1" id="Layer_1" xmlns="http://www.w3.org/2000/svg" xmlns:xlink="http://www.w3.org/1999/xlink" x="0px" y="0px"
	 viewBox="0 0 1500 1500" style="enable-background:new 0 0 1500 1500;" xml:space="preserve">
<style type="text/css">
	.st0{fill:#3D58F0;}
	.st1{fill:#F5B914;}
</style>
<g>
	<g>
		<g>
			<path class="st0" d="M267,818.3v30c0,22.9-10.5,44.5-28.6,58.6l-50,39v-25.5c0-24.2,10.9-47.1,29.7-62.4L267,818.3z"/>
			<path class="st0" d="M283.7,818.3v30c0,22.9,10.5,44.5,28.6,58.6l50,39v-25.5c0-24.2-10.9-47.1-29.7-62.4L283.7,818.3z"/>
		</g>
		<g>
			<g>
				<path class="st0" d="M213.6,788.8l-28.7,8.9c-21.8,6.8-39.3,23.3-47.4,44.7l-22.4,59.4l24.4-7.6c23.1-7.2,41.7-24.4,50.7-46.9
					L213.6,788.8z"/>
				<path class="st0" d="M208.7,772.9l-28.7,8.9c-21.8,6.8-45.6,3.2-64.4-9.9l-52.1-36.1l24.4-7.6c23.1-7.2,48.2-3.6,68.4,9.8
					L208.7,772.9z"/>
			</g>
			<g>
				<path class="st0" d="M337.1,788.8l28.7,8.9c21.8,6.8,39.3,23.3,47.4,44.7l22.4,59.4l-24.4-7.6c-23.1-7.2-41.7-24.4-50.7-46.9
					L337.1,788.8z"/>
				<path class="st0" d="M342.1,772.9l28.7,8.9c21.8,6.8,45.6,3.2,64.4-9.9l52.1-36.1l-24.4-7.6c-23.1-7.2-48.2-3.6-68.4,9.8
					L342.1,772.9z"/>
			</g>
		</g>
		<g>
			<g>
				<path class="st0" d="M235.6,714.1l-18.4-23.7c-14-18.1-35.6-28.6-58.5-28.7l-63.4-0.1l15.7,20.2c14.9,19.1,37.5,30.5,61.7,31
					L235.6,714.1z"/>
				<path class="st0" d="M248.8,703.8l-18.4-23.7c-14-18.1-19-41.6-13.4-63.8l15.5-61.5l15.7,20.2c14.9,19.1,20.3,43.9,14.8,67.4
					L248.8,703.8z"/>
			</g>
			<g>
				<path class="st1" d="M315.1,714.1l18.4-23.7c14-18.1,35.6-28.6,58.5-28.7l63.4-0.1l-15.7,20.2c-14.9,19.1-37.5,30.5-61.7,31
					L315.1,714.1z"/>
				<path class="st1" d="M302,703.8l18.4-23.7c14-18.1,19-41.6,13.4-63.8l-15.5-61.5L302.6,575c-14.9,19.1-20.3,43.9-14.8,67.4
					L302,703.8z"/>
			</g>
		</g>
	</g>
	<g>
		<path d="M538.7,663h19.4v92.5h44.2l-3.2,17.3h-60.3V663H538.7z"/>
		<path d="M661.8,662.2h7.9l48.9,110.5h-20.2l-10.6-25.8h-43.9l-10.6,25.8h-20.2L661.8,662.2z M681,730.6l-15-36.3h-0.3l-15,36.3
			H681z"/>
		<path d="M728.7,727.3V663h19.4v64.2c0,20.3,11.3,29.8,26.6,29.8c15,0,26.8-9.7,26.8-29.7V663h19.2v64.5c0,29.4-20.2,46.6-46,46.6
			C748.6,774.1,728.7,756.9,728.7,727.3z"/>
		<path d="M850.8,663h35c25.3,0,38.6,15.3,38.6,33.7c0,14.4-8.2,25.2-20.2,30.7l33.7,45.3h-23.2L885,731.4h-14.8v41.3h-19.4V663z
			 M884.3,715.1c12.3,0,20-6.1,20-17.3c0-11.6-8.1-17.6-19.7-17.6h-14.5v34.9L884.3,715.1L884.3,715.1z"/>
		<path d="M997.5,662.2h7.9l48.9,110.5h-20.2l-10.6-25.8h-43.9L969,772.7h-20.2L997.5,662.2z M1016.7,730.6l-15-36.3h-0.3l-15,36.3
			H1016.7z"/>
		<path d="M1104.6,662h8.2l45.8,54.5h0.3l44.5-54.5h8.1v110.7h-19.2v-70.2l-32.6,39h-2.7l-33.6-39.2v70.3h-18.9L1104.6,662
			L1104.6,662z"/>
		<path d="M1277.8,662.2h7.9l48.9,110.5h-20.2l-10.6-25.8h-43.9l-10.6,25.8h-20.2L1277.8,662.2z M1297,730.6l-15-36.3h-0.3l-15,36.3
			H1297z"/>
		<g>
			<path d="M541.1,815.4h4.1l35.4,46.7h0.4l35.1-46.7h3.6v85.4h-9.1v-64.4l-29.3,38.2h-1.2l-30-38.7v64.9h-9V815.4z"/>
			<path d="M646.6,816.1h46.6l1.6,8.3h-39v29.4h34.7v8.1h-34.7v30.5h40.3l-1.7,8.3h-47.8L646.6,816.1L646.6,816.1z"/>
			<path d="M736.9,824.4H709v-8.3h65.1v8.3h-28v76.3h-9.2L736.9,824.4L736.9,824.4z"/>
			<path d="M848.4,862.7H800v38.1h-9.2v-84.7h9.2v38.2h48.4v-38.2h9.2v84.7h-9.2V862.7z"/>
			<path d="M879,858.6c0-24.8,18.3-43.7,42.2-43.7s42.2,18.9,42.2,43.7S945.1,902,921.2,902S879,883.3,879,858.6z M921.2,893.4
				c16.7,0,32.7-12.9,32.7-34.9c0-22.2-16.1-35.1-32.7-35.1c-16.7,0-32.7,12.9-32.7,35.1C888.5,880.5,904.6,893.4,921.2,893.4z"/>
			<path d="M985,816.1h25.5c26.6,0,43.7,18.3,43.7,43.1c0,22.3-16.8,41.6-43.7,41.6H985V816.1z M1009.7,892.4
				c20.8,0,35.1-14.2,35.1-33.2c0-20.4-13.8-34.7-35.1-34.7h-15.4v68L1009.7,892.4L1009.7,892.4z"/>
		</g>
		<g>
			<path d="M1419.2,689.3c-7.9-8.3-15.2-10.6-22.6-10.6c-22.2,0-36.9,17-36.9,38.4c0,22.9,14.7,39.9,36.9,39.9
				c8.7,0,17-3.9,24.1-13.1l15.8,11.2c-9.7,13.4-24.3,19.1-40.1,19.1c-33.1,0-56.8-22.5-56.8-56c0-34.5,23.7-56.9,56.8-56.9
				c14.6,0,27,4.7,37.6,17L1419.2,689.3z"/>
		</g>
	</g>
</g>
</svg>
