<?xml version="1.0" encoding="utf-8"?>
<!-- Generator: Adobe Illustrator 26.5.0, SVG Export Plug-In . SVG Version: 6.00 Build 0)  -->
<svg version="1.1" id="Layer_1" xmlns="http://www.w3.org/2000/svg" xmlns:xlink="http://www.w3.org/1999/xlink" x="0px" y="0px"
	 viewBox="0 0 1442.6 391.1" style="enable-background:new 0 0 1442.6 391.1;" xml:space="preserve">
<style type="text/css">
	.st0{fill:#FFFFFF;}
	.st1{fill:#F5B914;}
</style>
<g>
	<g>
		<g>
			<path class="st0" d="M198.1,264.8c0.8-0.6,1.9-0.1,1.9,0.9v27.6c0,22.9-10.5,44.5-28.6,58.6L126,387.3c-1.9,1.4-4.6,0.1-4.6-2.2
				v-19.7c0-24.2,10.9-47.1,29.7-62.4L198.1,264.8z"/>
			<path class="st0" d="M218.5,264.8c-0.8-0.6-1.9-0.1-1.9,0.9v27.6c0,22.9,10.5,44.5,28.6,58.6l45.4,35.4c1.9,1.4,4.6,0.1,4.6-2.2
				v-19.7c0-24.2-10.9-47.1-29.7-62.4L218.5,264.8z"/>
		</g>
		<g>
			<g>
				<path class="st0" d="M145.7,236c0.4-0.9-0.5-1.8-1.4-1.5l-26.4,8.2c-21.8,6.8-39.3,23.3-47.4,44.7l-20.4,54
					c-0.8,2.2,1.2,4.4,3.5,3.7l18.9-5.9c23.1-7.2,41.7-24.4,50.7-46.9L145.7,236z"/>
				<path class="st0" d="M139.6,216.5c0.8,0.5,0.6,1.8-0.3,2.1l-26.4,8.2c-21.8,6.8-45.6,3.2-64.4-9.9L1.2,184
					c-1.9-1.3-1.5-4.3,0.8-5l18.9-5.9c23.1-7.2,48.2-3.6,68.4,9.8L139.6,216.5z"/>
			</g>
			<g>
				<path class="st0" d="M270.9,236c-0.4-0.9,0.5-1.8,1.4-1.5l26.4,8.2c21.8,6.8,39.3,23.3,47.4,44.7l20.4,54
					c0.8,2.2-1.2,4.4-3.5,3.7l-18.9-5.9c-23.1-7.2-41.7-24.4-50.7-46.9L270.9,236z"/>
				<path class="st0" d="M277.1,216.5c-0.8,0.5-0.6,1.8,0.3,2.1l26.4,8.2c21.8,6.8,45.6,3.2,64.4-9.9l47.3-32.8
					c1.9-1.3,1.5-4.3-0.8-5l-18.9-5.9c-23.1-7.2-48.2-3.6-68.4,9.8L277.1,216.5z"/>
			</g>
		</g>
		<g>
			<g>
				<path class="st0" d="M166.1,159c1,0,1.5-1.1,0.9-1.9l-16.9-21.8c-14-18.1-35.6-28.6-58.5-28.7L34,106.5c-2.4,0-3.7,2.7-2.2,4.6
					L44,126.7c14.9,19.1,37.5,30.5,61.7,31L166.1,159z"/>
				<path class="st0" d="M182.3,146.4c-0.2,0.9-1.4,1.2-2,0.4L163.4,125c-14-18.1-19-41.6-13.4-63.8l14-55.8c0.6-2.3,3.5-2.9,5-1
					L181.1,20c15,19,20.4,43.8,14.9,67.3L182.3,146.4z"/>
			</g>
			<g>
				<path class="st1" d="M250.5,159c-1,0-1.5-1.1-0.9-1.9l16.9-21.8c14-18.1,35.6-28.6,58.5-28.7l57.6-0.1c2.4,0,3.7,2.7,2.2,4.6
					l-12.1,15.6c-14.9,19.1-37.5,30.5-61.7,31L250.5,159z"/>
				<path class="st1" d="M234.4,146.4c0.2,0.9,1.4,1.2,2,0.4l16.9-21.8c14-18.1,19-41.6,13.4-63.8l-14-55.8c-0.6-2.3-3.5-2.9-5-1
					L235.6,20c-14.9,19.1-20.3,43.9-14.8,67.4L234.4,146.4z"/>
			</g>
		</g>
	</g>
	<g>
		<g>
			<path class="st0" d="M471.7,272.2h3.5l29.8,39.3h0.3l29.6-39.3h3v71.9h-7.7v-54.2l-24.7,32.2h-1l-25.3-32.6v54.7h-7.6v-72H471.7z
				"/>
			<path class="st0" d="M560.5,272.8h39.3l1.3,7h-32.9v24.8h29.2v6.8h-29.2v25.7h33.9l-1.4,7h-40.3L560.5,272.8L560.5,272.8z"/>
			<path class="st0" d="M636.6,279.8h-23.5v-7h54.8v7h-23.6v64.3h-7.7V279.8L636.6,279.8z"/>
			<path class="st0" d="M730.5,312h-40.8v32.1H682v-71.3h7.7V305h40.8v-32.2h7.7v71.3h-7.7V312z"/>
			<path class="st0" d="M756.3,308.6c0-20.9,15.4-36.8,35.5-36.8s35.5,15.9,35.5,36.8s-15.4,36.6-35.5,36.6S756.3,329.4,756.3,308.6
				z M791.8,337.9c14.1,0,27.5-10.9,27.5-29.4c0-18.7-13.6-29.6-27.5-29.6c-14.1,0-27.5,10.9-27.5,29.6
				C764.3,327,777.8,337.9,791.8,337.9z"/>
			<path class="st0" d="M845.6,272.8H867c22.4,0,36.8,15.4,36.8,36.3c0,18.8-14.2,35-36.8,35h-21.5L845.6,272.8L845.6,272.8z
				 M866.4,337.1c17.5,0,29.6-12,29.6-28c0-17.2-11.6-29.2-29.6-29.2h-13v57.3L866.4,337.1L866.4,337.1z"/>
		</g>
		<g>
			<path class="st0" d="M471.7,106.7h21v100.1H542l-7.8,18.7h-62.4V106.7H471.7z"/>
			<path class="st0" d="M606.9,105.8h8.6l52.9,119.6h-21.9L635,197.5h-47.5L576,225.4h-21.9L606.9,105.8z M627.7,179.9l-16.2-39.3
				h-0.3L595,179.9H627.7z"/>
			<path class="st0" d="M679.4,176.3v-69.6h21v69.5c0,22,12.2,32.3,28.8,32.3c16.2,0,29-10.5,29-32.2v-69.6H779v69.8
				c0,31.8-21.9,50.5-49.8,50.5C700.9,227,679.4,208.3,679.4,176.3z"/>
			<path class="st0" d="M808.5,106.7h37.9c27.4,0,41.8,16.6,41.8,36.5c0,15.6-8.9,27.3-21.9,33.2l36.5,49h-25.1l-32.2-44.7h-16v44.7
				h-21V106.7L808.5,106.7z M844.8,163.1c13.3,0,21.7-6.6,21.7-18.7c0-12.6-8.8-19.1-21.3-19.1h-15.7v37.8H844.8L844.8,163.1z"/>
			<path class="st0" d="M966.4,105.8h8.6l52.9,119.6H1006l-11.5-27.9H947l-11.5,27.9h-21.9L966.4,105.8z M987.2,179.9L971,140.6
				h-0.3l-16.2,39.3L987.2,179.9L987.2,179.9z"/>
			<path class="st0" d="M1082.3,105.6h8.9l49.6,59h0.3l48.2-59h8.8v119.8h-20.8v-76l-35.3,42.2h-2.9l-36.4-42.4v76.1h-20.5
				L1082.3,105.6L1082.3,105.6z"/>
			<path class="st0" d="M1269.8,105.8h8.6l52.9,119.6h-21.9l-11.5-27.9h-47.5l-11.5,27.9H1217L1269.8,105.8z M1290.6,179.9
				l-16.2-39.3h-0.3l-16.2,39.3H1290.6z"/>
			<g>
				<path class="st0" d="M1423.9,135.2c-8.6-9-16.5-11.5-24.5-11.5c-24,0-39.9,18.4-39.9,41.6c0,24.8,15.9,43.2,39.9,43.2
					c9.4,0,18.4-4.2,26.1-14.2l17.1,12.1c-10.5,14.5-26.3,20.7-43.4,20.7c-35.8,0-61.5-24.4-61.5-60.6c0-37.4,25.7-61.6,61.5-61.6
					c15.8,0,29.2,5.1,40.7,18.4L1423.9,135.2z"/>
			</g>
		</g>
	</g>
</g>
</svg>
