<?xml version="1.0" encoding="utf-8"?>
<!-- Generator: Adobe Illustrator 26.5.0, SVG Export Plug-In . SVG Version: 6.00 Build 0)  -->
<svg version="1.1" id="Layer_1" xmlns="http://www.w3.org/2000/svg" xmlns:xlink="http://www.w3.org/1999/xlink" x="0px" y="0px"
	 viewBox="0 0 1373 391.1" style="enable-background:new 0 0 1373 391.1;" xml:space="preserve">
<style type="text/css">
	.st0{fill:#3D58F0;}
	.st1{fill:#F5B914;}
</style>
<g>
	<g>
		<path class="st0" d="M203.5,263.5v30c0,22.9-10.5,44.5-28.6,58.6l-50,39v-25.5c0-24.2,10.9-47.1,29.7-62.4L203.5,263.5z"/>
		<path class="st0" d="M220.2,263.5v30c0,22.9,10.5,44.5,28.6,58.6l50,39v-25.5c0-24.2-10.9-47.1-29.7-62.4L220.2,263.5z"/>
	</g>
	<g>
		<g>
			<path class="st0" d="M150.1,234l-28.7,8.9c-21.8,6.8-39.3,23.3-47.4,44.7L51.6,347l24.4-7.6c23.1-7.2,41.7-24.4,50.7-46.9
				L150.1,234z"/>
			<path class="st0" d="M145.2,218.1l-28.7,8.9c-21.8,6.8-45.6,3.2-64.4-9.9L0,181l24.4-7.6c23.1-7.2,48.2-3.6,68.4,9.8L145.2,218.1
				z"/>
		</g>
		<g>
			<path class="st0" d="M273.6,234l28.7,8.9c21.8,6.8,39.3,23.3,47.4,44.7l22.4,59.4l-24.4-7.6c-23.1-7.2-41.7-24.4-50.7-46.9
				L273.6,234z"/>
			<path class="st0" d="M278.6,218.1l28.7,8.9c21.8,6.8,45.6,3.2,64.4-9.9l52.1-36.1l-24.4-7.6c-23.1-7.2-48.2-3.6-68.4,9.8
				L278.6,218.1z"/>
		</g>
	</g>
	<g>
		<g>
			<path class="st0" d="M172.1,159.3l-18.4-23.7c-14-18.1-35.6-28.6-58.5-28.7l-63.4-0.1L47.5,127c14.9,19.1,37.5,30.5,61.7,31
				L172.1,159.3z"/>
			<path class="st0" d="M185.3,149l-18.4-23.7c-14-18.1-19-41.6-13.4-63.8L169,0l15.7,20.2c14.9,19.1,20.3,43.9,14.8,67.4L185.3,149
				z"/>
		</g>
		<g>
			<path class="st1" d="M251.6,159.3l18.4-23.7c14-18.1,35.6-28.6,58.5-28.7l63.4-0.1L376.2,127c-14.9,19.1-37.5,30.5-61.7,31
				L251.6,159.3z"/>
			<path class="st1" d="M238.5,149l18.4-23.7c14-18.1,19-41.6,13.4-63.8L254.8,0l-15.7,20.2c-14.9,19.1-20.3,43.9-14.8,67.4
				L238.5,149z"/>
		</g>
	</g>
</g>
<g>
	<path d="M475.2,261.8h4.1l35.4,46.7h0.4l35.1-46.7h3.6v85.4h-9.1v-64.4L515.4,321h-1.2l-30-38.7v64.9h-9V261.8z"/>
	<path d="M580.7,262.5h46.6l1.6,8.3h-39v29.4h34.7v8.1h-34.7v30.5h40.3l-1.7,8.3h-47.8L580.7,262.5L580.7,262.5z"/>
	<path d="M671,270.8h-27.9v-8.3h65.1v8.3h-28v76.3H671L671,270.8L671,270.8z"/>
	<path d="M782.5,309.1h-48.4v38.1h-9.2v-84.7h9.2v38.2h48.4v-38.2h9.2v84.7h-9.2V309.1z"/>
	<path d="M813.1,305c0-24.8,18.3-43.7,42.2-43.7s42.2,18.9,42.2,43.7s-18.3,43.4-42.2,43.4S813.1,329.7,813.1,305z M855.3,339.8
		c16.7,0,32.7-12.9,32.7-34.9c0-22.2-16.1-35.1-32.7-35.1c-16.7,0-32.7,12.9-32.7,35.1C822.6,326.9,838.7,339.8,855.3,339.8z"/>
	<path d="M919.1,262.5h25.5c26.6,0,43.7,18.3,43.7,43.1c0,22.3-16.8,41.6-43.7,41.6h-25.5L919.1,262.5L919.1,262.5z M943.8,338.8
		c20.8,0,35.1-14.2,35.1-33.2c0-20.4-13.8-34.7-35.1-34.7h-15.4v68L943.8,338.8L943.8,338.8z"/>
</g>
<g>
	<path d="M475.2,106.8h19.4v92.5h50.2l-7.2,17.3h-62.3V106.8H475.2z"/>
	<path d="M598.3,106h7.9l48.9,110.5h-20.2l-10.6-25.8h-43.9l-10.6,25.8h-20.2L598.3,106z M617.5,174.4l-15-36.3h-0.3l-15,36.3H617.5
		z"/>
	<path d="M665.2,171.1v-64.3h19.4V171c0,20.3,11.3,29.8,26.6,29.8c15,0,26.8-9.7,26.8-29.7v-64.3h19.2v64.5
		c0,29.4-20.2,46.6-46,46.6C685.1,217.9,665.2,200.7,665.2,171.1z"/>
	<path d="M787.3,106.8h35c25.3,0,38.6,15.3,38.6,33.7c0,14.4-8.2,25.2-20.2,30.7l33.7,45.3h-23.2l-29.7-41.3h-14.8v41.3h-19.4V106.8
		z M820.8,158.9c12.3,0,20-6.1,20-17.3c0-11.6-8.1-17.6-19.7-17.6h-14.5v34.9L820.8,158.9L820.8,158.9z"/>
	<path d="M934,106h7.9l48.9,110.5h-20.2L960,190.7h-43.9l-10.6,25.8h-20.2L934,106z M953.2,174.4l-15-36.3h-0.3l-15,36.3H953.2z"/>
	<path d="M1041.1,105.8h8.2l45.8,54.5h0.3l44.5-54.5h8.1v110.7h-19.2v-70.2l-32.6,39h-2.7l-33.6-39.2v70.3H1041L1041.1,105.8
		L1041.1,105.8z"/>
	<path d="M1214.3,106h7.9l48.9,110.5h-20.2l-10.6-25.8h-43.9l-10.6,25.8h-20.2L1214.3,106z M1233.5,174.4l-15-36.3h-0.3l-15,36.3
		H1233.5z"/>
	<g>
		<path d="M1355.7,133.1c-7.9-8.3-15.2-10.6-22.6-10.6c-22.2,0-36.9,17-36.9,38.4c0,22.9,14.7,39.9,36.9,39.9
			c8.7,0,17-3.9,24.1-13.1l15.8,11.2c-9.7,13.4-24.3,19.1-40.1,19.1c-33.1,0-56.8-22.5-56.8-56c0-34.5,23.7-56.9,56.8-56.9
			c14.6,0,27,4.7,37.6,17L1355.7,133.1z"/>
	</g>
</g>
</svg>
