<?xml version="1.0" encoding="UTF-8"?><svg id="Layer_2" xmlns="http://www.w3.org/2000/svg" viewBox="0 0 324.99 329.96"><defs><style>.cls-1{stroke-width:6px;}.cls-1,.cls-2,.cls-3,.cls-4,.cls-5{fill:none;stroke-linecap:square;stroke-miterlimit:10;}.cls-1,.cls-5{stroke:#3d58f0;}.cls-6{fill:#3d58f0;}.cls-2{stroke-width:11px;}.cls-2,.cls-3,.cls-4{stroke:#231f20;}.cls-3{stroke-width:9px;}.cls-4,.cls-5{stroke-width:12px;}</style></defs><g id="Layer_1-2"><g><g><line class="cls-5" x1="76.33" y1="45.56" x2="254.34" y2="45.56"/><path class="cls-4" d="M162.5,215.39h17.82s4.64-12.89,22.77-26.13C265,144.07,253.65,6,253.65,6H71.35s-11.35,138.07,50.56,183.26c18.13,13.23,22.77,26.13,22.77,26.13h17.82"/><path class="cls-1" d="M117.36,154.42c1.64,3.02,1.71,3.01,3.62,6.06"/><path class="cls-1" d="M97.14,100.5s2.71,16.21,11.63,36.72"/><rect class="cls-2" x="135.81" y="218.01" width="53.38" height="22.37" rx="11.18" ry="11.18"/><rect class="cls-2" x="147.38" y="240.38" width="30.62" height="28.03"/><rect class="cls-2" x="120.75" y="268.4" width="83.89" height="23.48"/><rect class="cls-2" x="94.89" y="291.88" width="135.62" height="32.57"/><path class="cls-3" d="M68.26,53.6s-30.1-13.81-40.02-1.63c-9.76,11.97-3.29,98.76,63.76,105.62"/><path class="cls-3" d="M69.59,33.33c-18.94-5.55-50.35-10.78-60.95,14.85-16.9,40.86,19.45,121.96,80.75,130.96,3.39,.5,12.49,.84,15.92,1.04"/><path class="cls-3" d="M256.74,53.6s30.1-13.81,40.02-1.63c9.76,11.97,3.29,98.76-63.76,105.62"/><path class="cls-3" d="M255.4,33.33c18.94-5.55,50.35-10.78,60.95,14.85,16.9,40.86-19.45,121.96-80.75,130.96-3.39,.5-12.49,.84-15.92,1.04"/></g><g><g><rect class="cls-6" x="55.98" y="248.41" width="7.7" height="20.6"/><rect class="cls-6" x="55.98" y="248.41" width="7.7" height="20.6" transform="translate(318.53 198.88) rotate(90)"/></g><g><rect class="cls-6" x="264.67" y="196.87" width="8.77" height="23.45"/><rect class="cls-6" x="264.67" y="196.87" width="8.77" height="23.45" transform="translate(477.65 -60.46) rotate(90)"/></g><rect class="cls-6" x="237.53" y="243.03" width="6.99" height="7.86"/><rect class="cls-6" x="31.94" y="185.37" width="6.99" height="7.57"/><rect class="cls-6" x="90.36" y="214.19" width="7.18" height="7.76"/></g></g></g></svg>