<?xml version="1.0" encoding="UTF-8"?><svg id="Layer_2" xmlns="http://www.w3.org/2000/svg" viewBox="0 0 337.9 329.46"><defs><style>.cls-1{stroke:#3d58f0;}.cls-1,.cls-2{stroke-linecap:square;}.cls-1,.cls-2,.cls-3{fill:none;stroke-miterlimit:10;stroke-width:11px;}.cls-2,.cls-3{stroke:#231f20;}</style></defs><g id="Layer_1-2"><g><path class="cls-2" d="M218.46,143.5l104.92-91.73c11.29-9.87,12.1-27.14,1.79-38.03h0c-10.31-10.89-27.6-11.01-38.07-.27l-96.92,99.43"/><path class="cls-3" d="M80.42,259.82c-7.73-.85-15.76,1.58-21.85,7.34-10.99,10.41-11.46,27.75-1.05,38.73,10.41,10.99,27.75,11.46,38.73,1.05,5.6-5.3,8.47-12.41,8.55-19.56"/><path class="cls-1" d="M146.21,320.62l4.63-35.62c.84-6.47,3.57-12.56,7.83-17.5l48.13-55.69c19.71-22.81,18.93-56.84-1.8-78.73l-2.75-2.91-2.75-2.91c-20.73-21.89-54.67-24.51-78.52-6.06l-58.22,45.04c-5.16,3.99-11.39,6.38-17.9,6.87l-35.82,2.69c-3.21,.24-4.71,4.11-2.49,6.45l66.54,70.25,66.54,70.25c2.22,2.34,6.16,1.06,6.57-2.14Z"/></g></g></svg>