<?xml version="1.0" encoding="UTF-8"?><svg id="Layer_2" xmlns="http://www.w3.org/2000/svg" viewBox="0 0 396.02 299.1"><defs><style>.cls-1{stroke-width:10px;}.cls-1,.cls-2,.cls-3,.cls-4{fill:none;stroke-linecap:square;stroke-miterlimit:10;}.cls-1,.cls-3{stroke:#231f20;}.cls-2{stroke-width:9px;}.cls-2,.cls-4{stroke:#3d58f0;}.cls-3,.cls-4{stroke-width:12px;}</style></defs><g id="Layer_1-2"><g><polyline class="cls-3" points="330.15 25.61 360.41 25.61 360.41 262.52 34.66 262.52 34.66 25.61 65.61 25.61"/><polyline class="cls-3" points="390.02 241.22 390.02 293.1 6 293.1 6 54.27 34.66 54.27"/><line class="cls-4" x1="390.02" y1="135.99" x2="390.02" y2="156.99"/><polyline class="cls-3" points="360.41 54.27 390.02 54.27 390.02 103.7"/><line class="cls-1" x1="197.88" y1="245.66" x2="197.88" y2="49.23"/><path class="cls-3" d="M197.88,49.23C156.33,16.31,107.16-.85,65.61,8.57V224.15c43.22-.31,87.37,9.54,132.27,27.51"/><path class="cls-3" d="M197.88,49.23C239.43,16.31,288.6-.85,330.15,8.57V224.15c-43.22-.31-87.37,9.54-132.27,27.51"/><path class="cls-2" d="M172.35,78.34c-26.19-14.6-54.01-21.69-80.24-21.27"/><path class="cls-2" d="M172.35,117.98c-26.19-14.6-54.01-21.69-80.24-21.27"/><path class="cls-2" d="M172.35,157.63c-26.19-14.6-54.01-21.69-80.24-21.27"/><path class="cls-2" d="M172.35,197.27c-26.19-14.6-54.01-21.69-80.24-21.27"/><path class="cls-2" d="M223.41,78.34c26.19-14.6,54.01-21.69,80.24-21.27"/><path class="cls-2" d="M223.41,117.98c26.19-14.6,54.01-21.69,80.24-21.27"/><path class="cls-2" d="M223.41,157.63c26.19-14.6,54.01-21.69,80.24-21.27"/><path class="cls-2" d="M223.41,197.27c26.19-14.6,54.01-21.69,80.24-21.27"/><line class="cls-4" x1="390.02" y1="187.57" x2="390.02" y2="208.57"/></g></g></svg>