<?xml version="1.0" encoding="UTF-8"?><svg id="Layer_2" xmlns="http://www.w3.org/2000/svg" viewBox="0 0 396.02 300.1"><defs><style>.cls-1{stroke-width:9px;}.cls-1,.cls-2,.cls-3{fill:none;stroke-linecap:square;stroke-miterlimit:10;}.cls-1,.cls-3{stroke:#3d58f0;}.cls-2{stroke:#231f20;}.cls-2,.cls-3{stroke-width:12px;}</style></defs><g id="Layer_1-2"><g><polyline class="cls-2" points="330.15 26.61 360.41 26.61 360.41 263.52 34.66 263.52 34.66 26.61 65.61 26.61"/><polyline class="cls-2" points="390.02 242.22 390.02 294.1 6 294.1 6 55.27 34.66 55.27"/><line class="cls-3" x1="390.02" y1="136.99" x2="390.02" y2="157.99"/><polyline class="cls-2" points="360.41 55.27 390.02 55.27 390.02 104.7"/><path class="cls-2" d="M197.88,251.66V49.23C156.33,16.31,107.16-.85,65.61,8.57V224.15c43.22-.31,87.37,9.54,132.27,27.51Z"/><path class="cls-2" d="M197.88,251.66V49.23C239.43,16.31,288.6-.85,330.15,8.57V224.15c-43.22-.31-87.37,9.54-132.27,27.51Z"/><path class="cls-1" d="M172.35,78.34c-26.19-14.6-54.01-21.69-80.24-21.27"/><path class="cls-1" d="M172.35,117.98c-26.19-14.6-54.01-21.69-80.24-21.27"/><path class="cls-1" d="M172.35,157.63c-26.19-14.6-54.01-21.69-80.24-21.27"/><path class="cls-1" d="M172.35,197.27c-26.19-14.6-54.01-21.69-80.24-21.27"/><path class="cls-1" d="M223.41,78.34c26.19-14.6,54.01-21.69,80.24-21.27"/><path class="cls-1" d="M223.41,117.98c26.19-14.6,54.01-21.69,80.24-21.27"/><path class="cls-1" d="M223.41,157.63c26.19-14.6,54.01-21.69,80.24-21.27"/><path class="cls-1" d="M223.41,197.27c26.19-14.6,54.01-21.69,80.24-21.27"/><line class="cls-3" x1="390.02" y1="188.57" x2="390.02" y2="209.57"/></g></g></svg>