<?xml version="1.0" encoding="UTF-8"?><svg id="Layer_2" xmlns="http://www.w3.org/2000/svg" viewBox="0 0 341.12 329.46"><defs><style>.cls-1,.cls-2{stroke-width:11px;}.cls-1,.cls-2,.cls-3{fill:none;stroke-linecap:square;stroke-miterlimit:10;}.cls-1,.cls-3{stroke:#3d58f0;}.cls-2{stroke:#231f20;}.cls-3{stroke-width:9px;}</style></defs><g id="Layer_1-2"><g><g><rect class="cls-2" x="37.91" y="266.29" width="83.94" height="20.14"/><g><line class="cls-2" x1="58.54" y1="227.92" x2="58.54" y2="266.29"/><line class="cls-2" x1="101.23" y1="227.92" x2="101.23" y2="266.29"/></g><g><line class="cls-2" x1="47.91" y1="292.67" x2="47.91" y2="323.96"/><line class="cls-2" x1="111.86" y1="292.67" x2="111.86" y2="323.96"/></g><polyline class="cls-2" points="37.92 217.98 5.5 217.98 5.5 196.07 37.92 196.07"/><polyline class="cls-2" points="121.85 196.07 154.27 196.07 154.27 217.98 121.85 217.98"/><g><line class="cls-2" x1="16.04" y1="302.11" x2="16.04" y2="217.97"/><line class="cls-2" x1="143.73" y1="302.11" x2="143.73" y2="217.97"/></g><rect class="cls-2" x="219.27" y="266.29" width="83.94" height="20.14"/><g><line class="cls-2" x1="239.89" y1="227.92" x2="239.89" y2="266.29"/><line class="cls-2" x1="282.58" y1="227.92" x2="282.58" y2="266.29"/></g><g><line class="cls-2" x1="229.26" y1="292.67" x2="229.26" y2="323.96"/><line class="cls-2" x1="293.21" y1="292.67" x2="293.21" y2="323.96"/></g><polyline class="cls-2" points="219.27 217.98 186.86 217.98 186.86 196.07 219.27 196.07"/><polyline class="cls-2" points="303.2 196.07 335.62 196.07 335.62 217.98 303.2 217.98"/><g><line class="cls-2" x1="197.39" y1="302.11" x2="197.39" y2="217.97"/><line class="cls-2" x1="325.08" y1="302.11" x2="325.08" y2="217.97"/></g><rect class="cls-1" x="219.27" y="180.32" width="83.94" height="47.55" rx="5.36" ry="5.36"/><rect class="cls-1" x="37.91" y="180.32" width="83.94" height="47.55" rx="5.36" ry="5.36"/></g><g><line class="cls-3" x1="41.8" y1="131.14" x2="303.2" y2="131.14"/><polyline class="cls-3" points="270.79 123.16 270.79 105.14 229.26 105.14 229.26 123.16"/><polygon class="cls-2" points="303.21 153.81 37.91 153.81 37.91 129.37 37.91 5.5 303.21 5.5 303.21 153.81"/></g></g></g></svg>