<?xml version="1.0" encoding="UTF-8"?><svg id="Layer_2" xmlns="http://www.w3.org/2000/svg" viewBox="0 0 402.16 321.72"><defs><style>.cls-1{stroke:#3d58f0;}.cls-1,.cls-2{fill:none;stroke-miterlimit:10;stroke-width:12px;}.cls-2{stroke:#231f20;}</style></defs><g id="Layer_1-2"><g><g><g><path class="cls-2" d="M116.13,298.98H40.17c-18.87,0-34.17-15.3-34.17-34.17v-43.25c0-43.83,35.53-79.36,79.36-79.36h0c20.36,0,38.92,7.66,52.97,20.26"/><circle class="cls-2" cx="85.36" cy="86.58" r="53.96"/></g><g><path class="cls-2" d="M282.6,298.98h79.38c18.87,0,34.17-15.3,34.17-34.17v-43.25c0-43.83-35.53-79.36-79.36-79.36h0c-20.36,0-38.92,7.66-52.97,20.26"/><circle class="cls-2" cx="316.79" cy="86.58" r="53.96"/></g><g><path class="cls-2" d="M201.08,133.41h0c50.93,0,92.29,41.35,92.29,92.29v50.29c0,21.93-17.81,39.74-39.74,39.74h-105.09c-21.93,0-39.74-17.81-39.74-39.74v-50.29c0-50.93,41.35-92.29,92.29-92.29Z"/><circle class="cls-2" cx="201.08" cy="68.74" r="62.74"/></g></g><path class="cls-1" d="M170.77,88.42c10.64,16.33,33.08,21.32,49.59,10.88,4.4-2.78,8.18-6.52,11.02-10.88"/></g></g></svg>