<?xml version="1.0" encoding="UTF-8"?><svg id="Layer_2" xmlns="http://www.w3.org/2000/svg" viewBox="0 0 137.09 312.55"><defs><style>.cls-1{fill:#fff;}</style></defs><g id="Layer_1-2"><g><path class="cls-1" d="M63.69,312.35c-5-.39-10.01-1.34-15.02-3.02-20.12-6.75-29.87-23.26-27.76-45.07,1.66-17.13,7.1-33.28,11.5-49.72,4.04-15.09,8.19-30.15,12.01-45.29,1.81-7.16,2.45-14.51,1.06-21.9-1.15-6.11-4.65-9.85-10.77-11.19-8.61-1.89-17.04-1.09-25.37,1.56-2.95,.94-5.88,1.9-9.35,3.03,1.44-5.84,2.71-11.18,4.12-16.49,.19-.71,1.04-1.48,1.76-1.76,13.83-5.29,27.51-11.15,42.19-13.76,14.47-2.57,28.78-2.27,42.32,4.36,14.15,6.93,21.63,21.83,21,37.59-.84,21.23-8.23,40.82-13.43,60.98-3.42,13.27-7.1,26.47-10.27,39.8-1.56,6.56-2.46,13.32-1.1,20.11,1.56,7.82,5.24,11.16,13.08,12.52,10.4,1.8,20.25-.32,29.98-3.69,.93-.32,1.86-.67,3.27-1.19-1.41,5.81-2.69,11.26-4.11,16.68-.16,.61-1.02,1.24-1.69,1.5-20.21,7.54-41.71,16.64-63.42,14.97Z"/><circle class="cls-1" cx="98.35" cy="38.73" r="38.73"/></g></g></svg>