<?xml version="1.0" encoding="UTF-8"?><svg id="Layer_2" xmlns="http://www.w3.org/2000/svg" viewBox="0 0 344.3 349.8"><defs><style>.cls-1{stroke:#3d58f0;}.cls-1,.cls-2{fill:none;stroke-miterlimit:10;stroke-width:11px;}.cls-2{stroke:#231f20;}</style></defs><g id="Layer_1-2"><g><g><polyline class="cls-2" points="338.8 141.87 338.8 344.3 5.5 344.3 5.5 141.87"/><polyline class="cls-2" points="224.7 48.82 171.93 7.02 120.24 48.07"/><path class="cls-2" d="M53.42,101.13L5.5,139.18v2.69l138.62,110.08c16.29,12.93,39.34,12.95,55.65,.04l139.03-110.11v-2.69l-47.18-37.37"/><line class="cls-2" x1="5.5" y1="344.3" x2="132.96" y2="243.08"/><line class="cls-2" x1="338.36" y1="344.3" x2="210.9" y2="243.08"/></g><polyline class="cls-2" points="53.42 180.46 53.42 48.07 290.88 48.07 290.88 180.46"/><line class="cls-1" x1="95.03" y1="91.52" x2="249.26" y2="91.52"/><line class="cls-2" x1="95.03" y1="128.24" x2="249.26" y2="128.24"/><line class="cls-1" x1="95.03" y1="164.96" x2="249.26" y2="164.96"/></g></g></svg>