<?xml version="1.0" encoding="UTF-8"?><svg id="Layer_2" xmlns="http://www.w3.org/2000/svg" viewBox="0 0 345.3 350.94"><defs><style>.cls-1{stroke:#3d58f0;}.cls-1,.cls-2{fill:none;stroke-miterlimit:10;stroke-width:12px;}.cls-2{stroke:#231f20;}</style></defs><g id="Layer_1-2"><g><g><polyline class="cls-2" points="339.3 142.51 339.3 344.94 6 344.94 6 142.51"/><polyline class="cls-2" points="225.2 49.45 172.43 7.66 120.74 48.71"/><path class="cls-2" d="M53.92,101.77L6,139.82v2.69l138.62,110.08c16.29,12.93,39.34,12.95,55.65,.04l139.03-110.11v-2.69l-47.18-37.37"/><line class="cls-2" x1="6" y1="344.94" x2="133.46" y2="243.72"/><line class="cls-2" x1="338.86" y1="344.94" x2="211.4" y2="243.72"/></g><polyline class="cls-2" points="53.92 181.09 53.92 48.71 291.38 48.71 291.38 181.09"/><line class="cls-1" x1="95.53" y1="92.16" x2="249.76" y2="92.16"/><line class="cls-2" x1="95.53" y1="128.88" x2="249.76" y2="128.88"/><line class="cls-1" x1="95.53" y1="165.6" x2="249.76" y2="165.6"/></g></g></svg>