<?xml version="1.0" encoding="UTF-8"?><svg id="Layer_2" xmlns="http://www.w3.org/2000/svg" viewBox="0 0 322.8 378.14"><defs><style>.cls-1{stroke-linecap:round;}.cls-1,.cls-2{fill:none;stroke:#231f20;stroke-miterlimit:10;stroke-width:12px;}</style></defs><g id="Layer_1-2"><g><path class="cls-2" d="M148.75,215.17c5.62-2.54,12.07-2.54,17.69,0l4.07,1.84c5.45,2.46,11.47,3.42,17.4,2.66,20.67-2.68,68.44-16.17,62.9-79.47-7.88-90-93.22-64.72-93.22-64.72,0,0-85.34-25.28-93.22,64.72-5.54,63.29,42.22,76.79,62.9,79.47,5.93,.77,11.96-.19,17.4-2.66l4.07-1.84Z"/><line class="cls-2" x1="123.32" y1="296.51" x2="322.8" y2="296.51"/><line class="cls-2" x1="31.46" y1="296.51" x2="76.29" y2="296.51"/><line class="cls-2" x1="290.5" y1="220.88" x2="31.46" y2="220.88"/><path class="cls-2" d="M292.09,296.51c-15.57,0-28.19-16.93-28.19-37.82s12.62-37.82,28.19-37.82"/><path class="cls-2" d="M34.19,296.51c-15.57,0-28.19-16.93-28.19-37.82s12.62-37.82,28.19-37.82"/><line class="cls-2" x1="61.47" y1="372.14" x2="322.11" y2="372.14"/><path class="cls-2" d="M322.11,372.14c-15.57,0-28.19-16.93-28.19-37.82s12.62-37.82,28.19-37.82"/><path class="cls-2" d="M64.21,372.14c-15.57,0-28.19-16.93-28.19-37.82s12.62-37.82,28.19-37.82"/><line class="cls-2" x1="144.79" y1="334.33" x2="254.07" y2="334.33"/><polyline class="cls-2" points="72.26 258.7 72.26 321.25 97.51 295.99 122.41 320.89 122.41 258.7"/><line class="cls-2" x1="44.73" y1="258.7" x2="221.05" y2="258.7"/><path class="cls-1" d="M186.88,100.08s32.62,4.63,32.62,38.72"/><path class="cls-1" d="M113.29,28.92s42.07,2,44.31,42.56"/><path class="cls-1" d="M187.32,6h9.14V15.14c0,18.07-14.67,32.75-32.75,32.75h-9.14v-9.14c0-18.07,14.67-32.75,32.75-32.75Z"/></g></g></svg>