<?xml version="1.0" encoding="UTF-8"?><svg id="Layer_2" xmlns="http://www.w3.org/2000/svg" viewBox="0 0 322.3 377.14"><defs><style>.cls-1{stroke-linecap:round;}.cls-1,.cls-2,.cls-3{fill:none;stroke-miterlimit:10;stroke-width:11px;}.cls-1,.cls-3{stroke:#231f20;}.cls-2{stroke:#3d58f0;}</style></defs><g id="Layer_1-2"><g><path class="cls-3" d="M148.25,214.67c5.62-2.54,12.07-2.54,17.69,0l4.07,1.84c5.45,2.46,11.47,3.42,17.4,2.66,20.67-2.68,68.44-16.17,62.9-79.47-7.88-90-93.22-64.72-93.22-64.72,0,0-85.34-25.28-93.22,64.72-5.54,63.29,42.22,76.79,62.9,79.47,5.93,.77,11.96-.19,17.4-2.66l4.07-1.84Z"/><line class="cls-3" x1="122.82" y1="296.01" x2="322.3" y2="296.01"/><line class="cls-3" x1="30.96" y1="296.01" x2="75.79" y2="296.01"/><line class="cls-3" x1="290" y1="220.38" x2="30.96" y2="220.38"/><path class="cls-3" d="M291.59,296.01c-15.57,0-28.19-16.93-28.19-37.82s12.62-37.82,28.19-37.82"/><path class="cls-3" d="M33.69,296.01c-15.57,0-28.19-16.93-28.19-37.82s12.62-37.82,28.19-37.82"/><line class="cls-3" x1="60.97" y1="371.64" x2="321.61" y2="371.64"/><path class="cls-3" d="M321.61,371.64c-15.57,0-28.19-16.93-28.19-37.82s12.62-37.82,28.19-37.82"/><path class="cls-3" d="M63.71,371.64c-15.57,0-28.19-16.93-28.19-37.82s12.62-37.82,28.19-37.82"/><line class="cls-2" x1="144.29" y1="333.83" x2="253.57" y2="333.83"/><polyline class="cls-2" points="71.76 258.2 71.76 320.75 97.01 295.49 121.91 320.39 121.91 258.2"/><line class="cls-2" x1="44.23" y1="258.2" x2="220.55" y2="258.2"/><path class="cls-1" d="M186.38,99.58s32.62,4.63,32.62,38.72"/><path class="cls-1" d="M112.79,28.42s42.07,2,44.31,42.56"/><path class="cls-1" d="M186.82,5.5h9.14V14.64c0,18.07-14.67,32.75-32.75,32.75h-9.14v-9.14c0-18.07,14.67-32.75,32.75-32.75Z"/></g></g></svg>