<?xml version="1.0" encoding="UTF-8"?><svg id="Layer_2" xmlns="http://www.w3.org/2000/svg" viewBox="0 0 321.3 375.14"><defs><style>.cls-1{stroke-linecap:round;}.cls-1,.cls-2,.cls-3{fill:none;stroke-miterlimit:10;stroke-width:9px;}.cls-1,.cls-3{stroke:#231f20;}.cls-2{stroke:#3d58f0;}</style></defs><g id="Layer_1-2"><g><path class="cls-3" d="M147.25,213.67c5.62-2.54,12.07-2.54,17.69,0l4.07,1.84c5.45,2.46,11.47,3.42,17.4,2.66,20.67-2.68,68.44-16.17,62.9-79.47-7.88-90-93.22-64.72-93.22-64.72,0,0-85.34-25.28-93.22,64.72-5.54,63.29,42.22,76.79,62.9,79.47,5.93,.77,11.96-.19,17.4-2.66l4.07-1.84Z"/><line class="cls-3" x1="121.82" y1="295.01" x2="321.3" y2="295.01"/><line class="cls-3" x1="29.96" y1="295.01" x2="74.79" y2="295.01"/><line class="cls-3" x1="289" y1="219.38" x2="29.96" y2="219.38"/><path class="cls-3" d="M290.59,295.01c-15.57,0-28.19-16.93-28.19-37.82s12.62-37.82,28.19-37.82"/><path class="cls-3" d="M32.69,295.01c-15.57,0-28.19-16.93-28.19-37.82s12.62-37.82,28.19-37.82"/><line class="cls-3" x1="59.97" y1="370.64" x2="320.61" y2="370.64"/><path class="cls-3" d="M320.61,370.64c-15.57,0-28.19-16.93-28.19-37.82s12.62-37.82,28.19-37.82"/><path class="cls-3" d="M62.71,370.64c-15.57,0-28.19-16.93-28.19-37.82s12.62-37.82,28.19-37.82"/><line class="cls-2" x1="143.29" y1="332.83" x2="252.57" y2="332.83"/><polyline class="cls-2" points="70.76 257.2 70.76 319.75 96.01 294.49 120.91 319.39 120.91 257.2"/><line class="cls-2" x1="43.23" y1="257.2" x2="219.55" y2="257.2"/><path class="cls-1" d="M185.38,98.58s32.62,4.63,32.62,38.72"/><path class="cls-1" d="M111.79,27.42s42.07,2,44.31,42.56"/><path class="cls-1" d="M185.82,4.5h9.14V13.64c0,18.07-14.67,32.75-32.75,32.75h-9.14v-9.14c0-18.07,14.67-32.75,32.75-32.75Z"/></g></g></svg>