<?xml version="1.0" encoding="UTF-8"?><svg id="Layer_2" xmlns="http://www.w3.org/2000/svg" viewBox="0 0 342.31 340.97"><defs><style>.cls-1{stroke-linecap:square;}.cls-1,.cls-2,.cls-3{fill:none;stroke-miterlimit:10;stroke-width:11px;}.cls-1,.cls-3{stroke:#231f20;}.cls-2{stroke:#3d58f0;}</style></defs><g id="Layer_1-2"><g><line class="cls-3" x1="171.16" y1="155.85" x2="171.16" y2="240.78"/><g><line class="cls-3" x1="210.14" y1="136.69" x2="174.21" y2="172.27"/><path class="cls-3" d="M230.12,101.1h15.95v15.26c0,30.86-25.05,55.91-55.91,55.91h-15.95v-15.26c0-30.86,25.05-55.91,55.91-55.91Z"/></g><g><line class="cls-3" x1="132.17" y1="136.69" x2="168.1" y2="172.27"/><path class="cls-3" d="M96.24,101.1h15.95c30.86,0,55.91,25.05,55.91,55.91v15.26h-15.95c-30.86,0-55.91-25.05-55.91-55.91v-15.26h0Z" transform="translate(264.34 273.37) rotate(-180)"/></g><path class="cls-3" d="M228.63,296.26l-16.56,22.22c-7.96,10.69-20.51,16.99-33.84,16.99h-7.07s-7.07,0-7.07,0c-13.33,0-25.87-6.3-33.84-16.99l-16.56-22.22"/><rect class="cls-3" x="104.2" y="244.38" width="133.91" height="26.21" rx="13.1" ry="13.1"/><rect class="cls-3" x="104.2" y="270.59" width="133.91" height="26.21" rx="13.1" ry="13.1"/><line class="cls-2" x1="290.04" y1="44.83" x2="316.36" y2="29.46"/><line class="cls-2" x1="290.04" y1="184.57" x2="316.36" y2="199.94"/><line class="cls-2" x1="310.01" y1="114.7" x2="342.31" y2="114.7"/><line class="cls-2" x1="52.27" y1="44.83" x2="25.96" y2="29.46"/><line class="cls-2" x1="52.27" y1="184.57" x2="25.96" y2="199.94"/><line class="cls-2" x1="32.31" y1="114.7" x2="0" y2="114.7"/><path class="cls-1" d="M231.8,239.5c0-34.96,52.44-73.53,52.44-124.51,0-46.29-22.34-73.73-47.15-89.93-39.92-26.07-91.92-26.07-131.84,0-24.82,16.2-47.15,43.65-47.15,89.93,0,50.98,52.44,89.56,52.44,124.51"/></g></g></svg>