<?xml version="1.0" encoding="UTF-8"?><svg id="Layer_2" xmlns="http://www.w3.org/2000/svg" viewBox="0 0 317.19 314.75"><defs><style>.cls-1{stroke-linecap:square;}.cls-1,.cls-2,.cls-3{fill:none;stroke-miterlimit:10;stroke-width:9px;}.cls-1,.cls-3{stroke:#231f20;}.cls-2{stroke:#3d58f0;}</style></defs><g id="Layer_1-2"><g><g><path class="cls-2" d="M213.23,93.08h14.78v14.14c0,28.59-23.21,51.81-51.81,51.81h-14.78v-14.14c0-28.59,23.21-51.81,51.81-51.81Z"/><line class="cls-2" x1="194.72" y1="126.06" x2="161.42" y2="159.03"/></g><g><path class="cls-2" d="M89.18,93.08h14.78c28.59,0,51.81,23.21,51.81,51.81v14.14h-14.78c-28.59,0-51.81-23.21-51.81-51.81v-14.14h0Z" transform="translate(244.94 252.11) rotate(-180)"/><line class="cls-2" x1="122.47" y1="126.06" x2="155.76" y2="159.03"/></g><line class="cls-2" x1="158.59" y1="143.81" x2="158.59" y2="222.51"/><path class="cls-3" d="M211.84,273.92l-15.34,20.59c-7.38,9.9-19,15.74-31.35,15.74h-6.56s-6.56,0-6.56,0c-12.35,0-23.97-5.84-31.35-15.74l-15.34-20.59"/><rect class="cls-3" x="96.56" y="225.85" width="124.08" height="24.28" rx="12.14" ry="12.14"/><rect class="cls-3" x="96.56" y="250.13" width="124.08" height="24.28" rx="12.14" ry="12.14"/><line class="cls-3" x1="268.75" y1="40.94" x2="293.14" y2="26.7"/><line class="cls-3" x1="268.75" y1="170.42" x2="293.14" y2="184.66"/><line class="cls-3" x1="287.25" y1="105.68" x2="317.19" y2="105.68"/><line class="cls-3" x1="48.43" y1="40.94" x2="24.05" y2="26.7"/><line class="cls-3" x1="48.43" y1="170.42" x2="24.05" y2="184.66"/><line class="cls-3" x1="29.94" y1="105.68" x2="0" y2="105.68"/><path class="cls-1" d="M214.78,221.32c0-32.39,48.59-68.14,48.59-115.37,0-42.89-20.7-68.32-43.69-83.33-36.99-24.15-85.17-24.15-122.17,0-23,15.01-43.69,40.44-43.69,83.33,0,47.24,48.59,82.98,48.59,115.37"/></g></g></svg>