<?xml version="1.0" encoding="UTF-8"?><svg id="Layer_2" xmlns="http://www.w3.org/2000/svg" viewBox="0 0 342.31 341.97"><defs><style>.cls-1,.cls-2{fill:none;stroke:#231f20;stroke-miterlimit:10;stroke-width:12px;}.cls-2{stroke-linecap:square;}</style></defs><g id="Layer_1-2"><g><line class="cls-1" x1="171.16" y1="156.35" x2="171.16" y2="241.28"/><g><line class="cls-1" x1="210.14" y1="137.19" x2="174.21" y2="172.77"/><path class="cls-1" d="M230.12,101.6h15.95v15.26c0,30.86-25.05,55.91-55.91,55.91h-15.95v-15.26c0-30.86,25.05-55.91,55.91-55.91Z"/></g><g><line class="cls-1" x1="132.17" y1="137.19" x2="168.1" y2="172.77"/><path class="cls-1" d="M96.24,101.6h15.95c30.86,0,55.91,25.05,55.91,55.91v15.26h-15.95c-30.86,0-55.91-25.05-55.91-55.91v-15.26h0Z" transform="translate(264.34 274.37) rotate(-180)"/></g><path class="cls-1" d="M228.63,296.76l-16.56,22.22c-7.96,10.69-20.51,16.99-33.84,16.99h-7.07s-7.07,0-7.07,0c-13.33,0-25.87-6.3-33.84-16.99l-16.56-22.22"/><rect class="cls-1" x="104.2" y="271.09" width="133.91" height="26.21" rx="13.1" ry="13.1"/><line class="cls-1" x1="290.04" y1="45.33" x2="316.36" y2="29.96"/><line class="cls-1" x1="290.04" y1="185.07" x2="316.36" y2="200.44"/><line class="cls-1" x1="310.01" y1="115.2" x2="342.31" y2="115.2"/><line class="cls-1" x1="52.27" y1="45.33" x2="25.96" y2="29.96"/><line class="cls-1" x1="52.27" y1="185.07" x2="25.96" y2="200.44"/><line class="cls-1" x1="32.31" y1="115.2" x2="0" y2="115.2"/><path class="cls-2" d="M231.8,240c0-34.96,52.44-73.53,52.44-124.51,0-46.29-22.34-73.73-47.15-89.93-39.92-26.07-91.92-26.07-131.84,0-24.82,16.2-47.15,43.65-47.15,89.93,0,50.98,52.44,89.56,52.44,124.51"/><rect class="cls-1" x="104.2" y="244.88" width="133.91" height="26.21" rx="13.1" ry="13.1"/></g></g></svg>