<?xml version="1.0" encoding="UTF-8"?><svg id="Layer_2" xmlns="http://www.w3.org/2000/svg" viewBox="0 0 353.66 347.74"><defs><style>.cls-1{stroke-width:7px;}.cls-1,.cls-2{fill:none;stroke:#fff;stroke-miterlimit:10;}.cls-2{stroke-width:9px;}</style></defs><g id="Layer_1-2"><g><g><rect class="cls-2" x="97.86" y="73.45" width="157.93" height="30.97"/><rect class="cls-2" x="112.18" y="104.41" width="129.31" height="238.82"/><polyline class="cls-2" points="243.59 152.96 334.41 152.96 334.41 343.24 19.25 343.24 19.25 152.96 108.32 152.96"/><rect class="cls-2" x="4.5" y="124.44" width="107.68" height="28.52"/><rect class="cls-2" x="241.48" y="124.44" width="107.68" height="28.52" transform="translate(590.64 277.4) rotate(-180)"/><line class="cls-2" x1="176.83" x2="176.83" y2="73.45"/><path class="cls-2" d="M177.36,10.07h46.79c.55,0,1,.45,1,1V51.36c0,.55-.45,1-1,1h-46.79V10.07h0Z"/><circle class="cls-2" cx="176.83" cy="166.58" r="40.57"/><polyline class="cls-2" points="176.83 148.96 176.83 173.13 193.64 173.13"/></g><g><path class="cls-2" d="M137.26,320.54h79.14c.55,0,1,.45,1,1v21.69h-81.14v-21.69c0-.55,.45-1,1-1Z"/><g><path class="cls-2" d="M140.61,252.05h66.2c3.45,0,6.24,2.8,6.24,6.24v52.04c0,3.45-2.8,6.24-6.24,6.24h-66.2v-64.53h0Z" transform="translate(-107.49 461.15) rotate(-90)"/><line class="cls-2" x1="176.83" y1="250.31" x2="176.83" y2="318.23"/></g></g><g><rect class="cls-1" x="38.59" y="185.64" width="54.97" height="34.62"/><line class="cls-2" x1="66.07" y1="222.97" x2="66.07" y2="185.64"/><rect class="cls-1" x="38.59" y="242.13" width="54.97" height="34.62"/><line class="cls-2" x1="66.07" y1="279.45" x2="66.07" y2="242.13"/><rect class="cls-1" x="260.1" y="185.64" width="54.97" height="34.62"/><line class="cls-2" x1="287.58" y1="222.97" x2="287.58" y2="185.64"/><rect class="cls-1" x="260.1" y="242.13" width="54.97" height="34.62"/><line class="cls-2" x1="287.58" y1="279.45" x2="287.58" y2="242.13"/></g></g></g></svg>