<?xml version="1.0" encoding="UTF-8"?><svg id="Layer_2" xmlns="http://www.w3.org/2000/svg" viewBox="0 0 419.84 340.89"><defs><style>.cls-1{fill:#fff;}.cls-2{stroke-width:9px;}.cls-2,.cls-3{fill:none;stroke:#fff;stroke-linecap:square;stroke-miterlimit:10;}.cls-3{stroke-width:12px;}</style></defs><g id="Layer_1-2"><g><g><rect class="cls-2" x="176.06" y="169.72" width="67.73" height="46.33"/><line class="cls-2" x1="209.42" y1="169.72" x2="209.42" y2="213.6"/></g><rect class="cls-2" x="176.06" y="240.81" width="67.73" height="66.3"/><g><g><g><rect class="cls-2" x="45.47" y="169.72" width="78.74" height="46.33"/><g><line class="cls-2" x1="71.33" y1="169.72" x2="71.33" y2="213.6"/><line class="cls-2" x1="98.35" y1="169.72" x2="98.35" y2="213.6"/></g></g><rect class="cls-2" x="45.47" y="240.81" width="25.86" height="39.95"/><rect class="cls-2" x="98.35" y="240.81" width="25.86" height="39.95"/><rect class="cls-1" x="53.24" y="301.18" width="13.42" height="13.42"/><rect class="cls-1" x="104.57" y="301.18" width="13.42" height="13.42"/></g><g><g><rect class="cls-2" x="295.63" y="169.72" width="78.74" height="46.33" transform="translate(670 385.77) rotate(-180)"/><g><line class="cls-2" x1="348.51" y1="169.72" x2="348.51" y2="213.6"/><line class="cls-2" x1="321.49" y1="169.72" x2="321.49" y2="213.6"/></g></g><rect class="cls-2" x="348.51" y="240.81" width="25.86" height="39.95" transform="translate(722.88 521.57) rotate(-180)"/><rect class="cls-2" x="295.63" y="240.81" width="25.86" height="39.95" transform="translate(617.13 521.57) rotate(-180)"/><rect class="cls-1" x="353.18" y="301.18" width="13.42" height="13.42" transform="translate(719.78 615.77) rotate(-180)"/><rect class="cls-1" x="301.85" y="301.18" width="13.42" height="13.42" transform="translate(617.13 615.77) rotate(-180)"/></g></g><g><line class="cls-3" x1="20.18" y1="144.5" x2="20.18" y2="308.36"/><line class="cls-3" x1="402.93" y1="331.89" x2="402.93" y2="171.03"/><line class="cls-3" x1="6" y1="334.89" x2="413.84" y2="334.89"/><line class="cls-3" x1="151.77" y1="144.5" x2="151.77" y2="304.88"/><line class="cls-3" x1="271.34" y1="144.5" x2="271.34" y2="304.88"/><g><g><polygon class="cls-3" points="211.56 77.69 35.89 77.69 12.11 144.5 151.77 144.5 211.56 77.69"/><polygon class="cls-3" points="211.56 77.69 387.22 77.69 411 144.5 271.34 144.5 211.56 77.69"/></g><circle class="cls-2" cx="211.56" cy="130.14" r="14.43"/><line class="cls-3" x1="211.56" y1="6" x2="211.56" y2="77.69"/><path class="cls-3" d="M211.56,9.77h46.39c.35,0,.63,.28,.63,.63V45.74c0,.35-.28,.63-.63,.63h-46.39V9.77h0Z"/></g></g><polyline class="cls-3" points="137.1 329.75 137.1 307.11 282.74 307.11 282.74 329.75"/></g></g></svg>