<?xml version="1.0" encoding="UTF-8"?><svg id="Layer_2" xmlns="http://www.w3.org/2000/svg" viewBox="0 0 354.66 348.24"><defs><style>.cls-1{fill:none;stroke:#fff;stroke-miterlimit:10;stroke-width:10px;}</style></defs><g id="Layer_1-2"><g><g><rect class="cls-1" x="98.36" y="73.45" width="157.93" height="30.97"/><rect class="cls-1" x="112.68" y="104.41" width="129.31" height="238.82"/><polyline class="cls-1" points="244.09 152.96 334.91 152.96 334.91 343.24 19.75 343.24 19.75 152.96 108.82 152.96"/><rect class="cls-1" x="5" y="124.44" width="107.68" height="28.52"/><rect class="cls-1" x="241.98" y="124.44" width="107.68" height="28.52" transform="translate(591.64 277.4) rotate(-180)"/><line class="cls-1" x1="177.33" x2="177.33" y2="73.45"/><path class="cls-1" d="M177.86,10.07h46.79c.55,0,1,.45,1,1V51.36c0,.55-.45,1-1,1h-46.79V10.07h0Z"/><circle class="cls-1" cx="177.33" cy="166.58" r="40.57"/><polyline class="cls-1" points="177.33 148.96 177.33 173.13 194.14 173.13"/></g><g><path class="cls-1" d="M137.76,320.54h79.14c.55,0,1,.45,1,1v21.69h-81.14v-21.69c0-.55,.45-1,1-1Z"/><g><path class="cls-1" d="M141.11,252.05h66.2c3.45,0,6.24,2.8,6.24,6.24v52.04c0,3.45-2.8,6.24-6.24,6.24h-66.2v-64.53h0Z" transform="translate(-106.99 461.65) rotate(-90)"/><line class="cls-1" x1="177.33" y1="250.31" x2="177.33" y2="318.23"/></g></g><g><rect class="cls-1" x="39.09" y="185.64" width="54.97" height="34.62"/><line class="cls-1" x1="66.57" y1="222.97" x2="66.57" y2="185.64"/><rect class="cls-1" x="39.09" y="242.13" width="54.97" height="34.62"/><line class="cls-1" x1="66.57" y1="279.45" x2="66.57" y2="242.13"/><rect class="cls-1" x="260.6" y="185.64" width="54.97" height="34.62"/><line class="cls-1" x1="288.08" y1="222.97" x2="288.08" y2="185.64"/><rect class="cls-1" x="260.6" y="242.13" width="54.97" height="34.62"/><line class="cls-1" x1="288.08" y1="279.45" x2="288.08" y2="242.13"/></g></g></g></svg>