<?xml version="1.0" encoding="UTF-8"?><svg id="Layer_2" xmlns="http://www.w3.org/2000/svg" viewBox="0 0 355.94 355.86"><defs><style>.cls-1{fill:none;stroke:#fff;stroke-miterlimit:10;stroke-width:9px;}</style></defs><g id="Layer_1-2"><g><path class="cls-1" d="M178.05,4.52c-3.96,0-7.93-.04-11.89,0-8.07,.11-13.47,5.44-13.59,13.46-.08,5.24,.04,10.49-.04,15.73-.09,6.38-3.07,10.52-9.09,12.16-12.02,3.27-23.4,8.01-34.23,14.16-5.79,3.29-10.43,2.54-15.28-2.2-3.66-3.57-7.2-7.27-10.88-10.82-6.02-5.81-13.48-5.81-19.43,.03-5.57,5.46-11.09,10.97-16.55,16.55-5.83,5.96-5.82,13.42,0,19.42,3.47,3.58,7.07,7.04,10.56,10.6,5.09,5.19,5.79,9.7,2.26,15.9-6.04,10.6-10.65,21.76-13.89,33.52-1.75,6.36-5.72,9.35-12.26,9.44-5.24,.08-10.49-.04-15.73,.04-8.03,.12-13.38,5.52-13.45,13.6-.07,7.93-.08,15.86,0,23.78,.08,7.81,5.49,13.26,13.25,13.4,5.37,.1,10.74-.04,16.11,.05,6.34,.11,10.35,3.1,12.02,9.25,3.25,11.89,7.94,23.16,14.02,33.88,3.42,6.02,2.7,10.56-2.21,15.59-3.57,3.66-7.28,7.19-10.82,10.88-5.63,5.85-5.65,13.33,0,19.14,5.53,5.68,11.14,11.28,16.82,16.82,5.8,5.65,13.27,5.64,19.15,.02,3.6-3.45,7.06-7.05,10.61-10.55,5.31-5.24,9.8-5.96,16.2-2.31,10.49,5.97,21.55,10.51,33.17,13.76,6.76,1.89,9.59,5.75,9.64,12.88,.04,5.11-.06,10.23,.03,15.34,.14,7.76,5.59,13.17,13.4,13.26,7.93,.09,15.86,.08,23.79,0,8.06-.07,13.47-5.44,13.6-13.46,.08-4.86,0-9.72,.02-14.58,.03-7.9,2.67-11.48,10.2-13.61,11.36-3.2,22.19-7.64,32.44-13.52,6.59-3.78,11-3.09,16.51,2.36,3.46,3.41,6.83,6.92,10.33,10.29,6.01,5.8,13.48,5.81,19.44-.02,5.58-5.45,11.1-10.97,16.55-16.54,5.82-5.96,5.81-13.37,0-19.43-3.45-3.6-7.06-7.05-10.55-10.61-5.1-5.19-5.8-9.67-2.26-15.89,6.04-10.6,10.64-21.77,13.89-33.52,1.75-6.33,5.74-9.34,12.27-9.43,5.24-.07,10.49,.05,15.73-.04,8.01-.13,13.37-5.54,13.44-13.62,.07-7.93,.09-15.86,0-23.78-.09-7.82-5.5-13.25-13.27-13.38-5.24-.09-10.49,.02-15.73-.04-6.61-.08-10.68-3.02-12.39-9.28-3.26-11.89-7.95-23.16-14.03-33.88-3.35-5.91-2.7-10.48,1.98-15.3,3.65-3.76,7.47-7.36,11.08-11.16,5.63-5.91,5.62-13.35-.04-19.15-5.54-5.68-11.14-11.28-16.82-16.81-5.81-5.66-13.28-5.63-19.15,.02-3.59,3.46-7.05,7.06-10.6,10.56-5.32,5.24-9.83,5.94-16.21,2.28-10.48-6.01-21.54-10.52-33.17-13.75-6.6-1.83-9.54-5.72-9.61-12.51-.06-5.24,.06-10.49-.04-15.73-.15-7.76-5.6-13.11-13.42-13.24-3.96-.07-7.93-.01-11.89-.01Z"/><path class="cls-1" d="M254.51,178c.04-42.36-34.1-76.56-76.47-76.61-42.35-.05-76.57,34.1-76.62,76.46-.05,42.33,34.12,76.57,76.47,76.62,42.33,.05,76.57-34.12,76.61-76.47Z"/></g></g></svg>