<?xml version="1.0" encoding="UTF-8"?><svg id="Layer_2" xmlns="http://www.w3.org/2000/svg" viewBox="0 0 326.9 326.83"><defs><style>.cls-1{fill:#fff;}</style></defs><g id="Layer_1-2"><path class="cls-1" d="M326.84,152.09c-.08-7.36-5.18-12.48-12.5-12.61-4.94-.08-9.87,.02-14.82-.04-6.23-.08-10.05-2.85-11.67-8.74-3.07-11.2-7.49-21.82-13.22-31.92-3.16-5.56-2.54-9.87,1.87-14.42,3.44-3.54,7.04-6.93,10.44-10.51,5.3-5.57,5.3-12.58-.04-18.05-5.22-5.34-10.5-10.63-15.85-15.84-5.47-5.33-12.51-5.3-18.04,.02-3.38,3.25-6.64,6.64-9.99,9.94-5.01,4.94-9.26,5.61-15.28,2.15-9.87-5.65-20.3-9.91-31.25-12.96-6.22-1.72-8.99-5.39-9.06-11.79-.06-4.94,.06-9.88-.04-14.82-.14-7.31-5.27-12.35-12.65-12.48-3.73-.06-7.47,0-11.2,0s-7.47-.04-11.2,0c-7.6,.1-12.69,5.13-12.81,12.68-.08,4.95,.04,9.88-.04,14.82-.08,6.01-2.89,9.92-8.57,11.46-11.33,3.09-22.05,7.55-32.24,13.35-5.47,3.1-9.83,2.39-14.41-2.07-3.45-3.36-6.78-6.85-10.25-10.2-5.67-5.47-12.7-5.47-18.3,.03-5.25,5.14-10.45,10.34-15.59,15.58-5.49,5.62-5.48,12.65,0,18.31,3.27,3.37,6.66,6.62,9.95,9.99,4.8,4.89,5.46,9.13,2.13,14.98-5.69,9.98-10.04,20.5-13.1,31.58-1.65,5.98-5.38,8.8-11.55,8.89-4.94,.07-9.88-.05-14.82,.03-7.57,.12-12.6,5.2-12.66,12.81-.07,7.47-.08,14.94,0,22.41,.08,7.36,5.17,12.49,12.48,12.64,5.06,.08,10.13-.04,15.19,.05,5.97,.09,9.74,2.92,11.33,8.72,3.06,11.2,7.48,21.81,13.21,31.91,3.22,5.67,2.54,9.96-2.08,14.69-3.36,3.45-6.85,6.78-10.2,10.25-5.31,5.51-5.33,12.56,0,18.03,5.21,5.35,10.5,10.63,15.85,15.85,5.46,5.32,12.5,5.31,18.04,0,3.39-3.24,6.65-6.63,10-9.93,5-4.95,9.23-5.62,15.26-2.19,9.88,5.63,20.31,9.9,31.25,12.97,6.36,1.78,9.04,5.42,9.08,12.14,.04,4.81-.06,9.64,.04,14.45,.13,7.31,5.26,12.41,12.63,12.49,7.47,.08,14.94,.07,22.42,0,7.59-.07,12.69-5.13,12.81-12.68,.08-4.57,0-9.15,.02-13.73,.03-7.44,2.52-10.83,9.61-12.82,10.71-3.02,20.91-7.19,30.57-12.73,6.22-3.57,10.36-2.91,15.57,2.22,3.26,3.21,6.44,6.51,9.73,9.7,5.66,5.46,12.69,5.46,18.31-.02,5.26-5.14,10.46-10.34,15.59-15.59,5.48-5.61,5.47-12.6,0-18.31-3.25-3.39-6.65-6.64-9.94-10-4.81-4.89-5.47-9.1-2.13-14.97,5.69-9.98,10.03-20.5,13.09-31.57,1.65-5.97,5.42-8.81,11.56-8.89,4.94-.07,9.88,.05,14.82-.04,7.55-.11,12.59-5.21,12.66-12.82,.07-7.47,.08-14.94,0-22.42Zm-163.45,83.45c-39.91-.05-72.1-32.3-72.05-72.2,.05-39.91,32.28-72.09,72.19-72.04,39.93,.05,72.1,32.27,72.05,72.19-.04,39.9-32.3,72.1-72.19,72.05Z"/></g></svg>